<svg xmlns="http://www.w3.org/2000/svg" width="15" height="15"><g fill="#1A1A1A"><path d="M9.934 7.22a.626.626 0 0 0-.559-.345h-1.25V.625a.625.625 0 1 0-1.25 0v6.25h-1.25a.626.626 0 0 0-.5 1L7 10.375c.008.01.02.014.03.024a.61.61 0 0 0 .144.121c.022.014.04.032.064.043.08.038.168.062.262.062a.619.619 0 0 0 .263-.062c.023-.011.041-.03.063-.043a.61.61 0 0 0 .145-.12c.008-.01.02-.014.029-.025l1.875-2.5a.624.624 0 0 0 .06-.654z"/><path d="M14.375 9.375a.625.625 0 0 0-.625.625v1.875a1.877 1.877 0 0 1-1.875 1.875h-8.75a1.877 1.877 0 0 1-1.875-1.875V10A.625.625 0 1 0 0 10v1.875A3.129 3.129 0 0 0 3.125 15h8.75A3.129 3.129 0 0 0 15 11.875V10a.625.625 0 0 0-.625-.625z"/></g></svg>