<svg xmlns="http://www.w3.org/2000/svg" width="45" height="45"><path d="M36.263 13.553l-12.77-7.075a2.13 2.13 0 0 0-2.074 0l-12.77 7.075a2.142 2.142 0 0 0-1.103 1.873v14.06c0 .778.423 1.496 1.104 1.873l12.769 7.075a2.137 2.137 0 0 0 2.075 0l12.769-7.075a2.142 2.142 0 0 0 1.103-1.873v-14.06c0-.778-.422-1.496-1.103-1.873zm-13.994-5.54a.384.384 0 0 1 .375 0l5.099 2.824-12.298 6.814-5.218-2.967 12.042-6.672zm-.69 28.505L9.5 29.825a.387.387 0 0 1-.199-.339V16.175L15 19.415l.004.002 6.576 3.739v13.362zm-4.347-17.852l12.32-6.826 5.299 2.936-12.39 6.864-5.23-2.974zm18.38 10.82a.39.39 0 0 1-.2.34l-12.079 6.692V23.162l12.28-6.803v13.127zM16.3 22.323l-4.647-2.56a.878.878 0 0 0-1.3.768v3.708c0 .32.174.614.454.768l4.647 2.56a.877.877 0 0 0 1.3-.768V23.09a.877.877 0 0 0-.454-.768zM15 25.314l-2.893-1.593v-1.705L15 23.609v1.705zm4.96 6.282a.877.877 0 1 1-.847 1.536l-2.324-1.28a.877.877 0 0 1 .846-1.536l2.324 1.28zM40.811 9.52l1.618-1.618a.877.877 0 0 0-.62-1.497h-4.356a.877.877 0 0 0-.877.877v4.356a.877.877 0 0 0 1.497.62l1.478-1.477c5.556 8.123 4.562 19.289-2.46 26.31-6.04 6.04-15.008 7.755-22.848 4.37a.877.877 0 0 0-.695 1.611 22.39 22.39 0 0 0 8.888 1.84c1.354 0 2.714-.123 4.065-.37a22.324 22.324 0 0 0 11.83-6.21 22.44 22.44 0 0 0 6.525-14.344A22.449 22.449 0 0 0 40.812 9.52zm-2.48 0V8.16h1.36l-1.36 1.361zM11.72 40.16a.877.877 0 0 1-.912 1.498l-.035-.02a.877.877 0 1 1 .913-1.5l.034.022zM34.259 3.35a.877.877 0 0 1-.92 1.495l-.043-.027a.877.877 0 0 1 .92-1.494l.043.027zm-2.945-1.53A22.433 22.433 0 0 0 18.384.372 22.326 22.326 0 0 0 6.58 6.58 22.438 22.438 0 0 0 .055 20.924 22.45 22.45 0 0 0 4.1 35.39l-1.618 1.618a.877.877 0 0 0 .62 1.497h4.356a.877.877 0 0 0 .877-.877v-4.356a.877.877 0 0 0-1.497-.62L5.361 34.13C-.196 26.007.798 14.84 7.82 7.82 13.844 1.796 22.794.073 30.623 3.43a.877.877 0 0 0 .691-1.612zM6.581 35.39v1.361H5.22l1.361-1.361z"/></svg>