<svg xmlns="http://www.w3.org/2000/svg" width="14" height="25"><g fill="none" fill-rule="evenodd"><path d="M-6 0h25v25H-6z"/><path fill="#1A1A1A" fill-rule="nonzero" d="M8.63 25H4.262a.598.598 0 0 1-.598-.598v-10.26H.607a.598.598 0 0 1-.598-.598V9.313c0-.33.268-.598.598-.598h3.057V6.193C3.664 2.373 5.977 0 9.703 0c1.664 0 3.004.128 3.343.173.297.04.518.293.518.593V4.55c0 .33-.267.598-.597.598l-2.239.002c-1.292 0-1.5.43-1.5 1.463v2.104h3.593a.597.597 0 0 1 .593.674l-.545 4.231a.598.598 0 0 1-.593.523H9.228v10.26A.597.597 0 0 1 8.63 25zm-3.77-1.196h3.172v-10.26c0-.33.268-.598.598-.598h3.12l.392-3.036H8.63a.598.598 0 0 1-.598-.597V6.61c0-1.14.28-2.657 2.697-2.657l1.641-.002V1.306a32.596 32.596 0 0 0-2.667-.11c-3.034 0-4.844 1.867-4.844 4.997v3.12c0 .33-.267.597-.597.597H1.204v3.036h3.058c.33 0 .597.268.597.598v10.26z"/></g></svg>