<svg xmlns="http://www.w3.org/2000/svg" width="54" height="35"><path d="M52.922 9.103c.582 0 1.054-.472 1.054-1.054v-6.94c0-.581-.472-1.054-1.054-1.054h-5.693c-.938 0-1.734.616-2.007 1.465H30.388l-.033-.017A14.94 14.94 0 0 0 21.262.435l-8.515 1.662H8.852A2.11 2.11 0 0 0 6.747.055H1.054C.472.055 0 .528 0 1.11v6.777a1.054 1.054 0 0 0 2.108 0V2.164h4.639V22.15H2.108v-5.62a1.054 1.054 0 0 0-2.108 0v6.674c0 .582.472 1.054 1.054 1.054h5.693a2.11 2.11 0 0 0 2.108-2.108v-.012c.484.136.942.363 1.341.673l.493.38a3.341 3.341 0 0 0 3.553 2.971 3.33 3.33 0 0 0 1.194 2.169 3.337 3.337 0 0 0 2.355.755 3.33 3.33 0 0 0 1.194 2.168 3.329 3.329 0 0 0 2.357.757 3.34 3.34 0 0 0 1.192 2.167 3.329 3.329 0 0 0 2.455.75 3.331 3.331 0 0 0 2.265-1.206l.858-1.04c.252-.307.44-.645.567-.999.5.267 1.058.408 1.639.408h.05a3.468 3.468 0 0 0 2.455-1.058 3.47 3.47 0 0 0 .759-1.193l.364.353a3.48 3.48 0 0 0 2.432.986 3.482 3.482 0 0 0 3.324-2.422 3.496 3.496 0 0 0 4.056-.693c.65-.67 1-1.55.987-2.483a3.467 3.467 0 0 0-1.056-2.453l-.733-.714 2.164-1.168v.904a2.11 2.11 0 0 0 2.109 2.108h5.693c.582 0 1.054-.472 1.054-1.054v-6.99a1.054 1.054 0 0 0-2.109 0v5.936H47.23V2.164h4.638v5.885c0 .582.472 1.054 1.055 1.054zM15.837 22.571l-.857 1.04a1.246 1.246 0 0 1-1.922-1.583l.857-1.04a1.236 1.236 0 0 1 .963-.454 1.246 1.246 0 0 1 .959 2.037zm3.549 2.923l-.857 1.041a1.246 1.246 0 0 1-2.2-.672 1.237 1.237 0 0 1 .278-.911l.857-1.04a1.236 1.236 0 0 1 .963-.454c.288 0 .565.099.79.284.256.211.415.51.447.841.032.331-.067.654-.278.911zm3.55 2.924l-.858 1.04c-.212.257-.51.416-.841.448a1.234 1.234 0 0 1-.912-.278 1.237 1.237 0 0 1-.447-.841 1.24 1.24 0 0 1 .278-.912l.857-1.04a1.243 1.243 0 0 1 1.753-.17c.53.437.606 1.223.17 1.753zm3.548 2.923l-.857 1.041c-.212.257-.51.416-.841.448a1.246 1.246 0 0 1-1.08-2.03l.856-1.042a1.236 1.236 0 0 1 .963-.453c.288 0 .565.099.79.284.256.211.415.51.447.841.032.331-.066.655-.278.911zm15.762-4.746a1.384 1.384 0 0 1-1.955.028l-3.496-3.397-.012-.01-3.443-3.347a1.054 1.054 0 0 0-1.47 1.512l5.472 5.318c.547.531.56 1.408.028 1.955a1.384 1.384 0 0 1-1.955.028l-5.472-5.317c-.01-.011-.023-.02-.034-.03l-2.63-2.555a1.054 1.054 0 0 0-1.469 1.512l5.472 5.317a1.384 1.384 0 0 1-.944 2.375 1.372 1.372 0 0 1-.983-.392l-1.533-1.489a1.058 1.058 0 0 0-.108-.09c-.02-.017-.039-.035-.06-.051a3.341 3.341 0 0 0-2.356-.755 3.34 3.34 0 0 0-3.547-2.924 3.33 3.33 0 0 0-1.194-2.168 3.33 3.33 0 0 0-2.357-.757 3.34 3.34 0 0 0-1.192-2.167 3.333 3.333 0 0 0-2.455-.75 3.331 3.331 0 0 0-2.265 1.206l-.858 1.04a3.365 3.365 0 0 0-.2.27 6.06 6.06 0 0 0-2.375-.978V4.205h3.993a.975.975 0 0 0 .202-.02l8.616-1.68a12.881 12.881 0 0 1 4.382-.1 10.124 10.124 0 0 0-2.97 2.043l-7.982 7.897a3.749 3.749 0 0 0-.059 5.252 3.733 3.733 0 0 0 4.524.656l8.364-4.725h2.888L42.218 24.64c.265.257.414.602.419.972.005.369-.134.718-.391.983zm2.874-7.744l-3.747 2.022-7.538-7.346h.74a1.054 1.054 0 0 0 0-2.108h-6.927c-.182 0-.36.047-.518.136l-8.606 4.862a1.627 1.627 0 0 1-1.945-2.573l7.982-7.898a7.97 7.97 0 0 1 5.64-2.318h14.92v15.223zm8.547-7.439c.196.196.309.467.309.746 0 .277-.113.548-.309.745a1.062 1.062 0 0 1-.745.309c-.278 0-.55-.113-.746-.309a1.062 1.062 0 0 1-.309-.745 1.058 1.058 0 0 1 1.8-.745zm-51.867 0a1.06 1.06 0 0 1 0 1.491 1.062 1.062 0 0 1-.746.309c-.277 0-.549-.113-.745-.309A1.064 1.064 0 0 1 0 12.158a1.058 1.058 0 0 1 1.8-.745z"/></svg>