<svg xmlns="http://www.w3.org/2000/svg" width="25" height="22"><g fill="none" fill-rule="evenodd"><path d="M1-1h24v24H1z"/><path fill="#1A1A1A" fill-rule="nonzero" d="M22.966 2.066A6.858 6.858 0 0 0 18.077.042c-1.848 0-3.585.72-4.894 2.029l-.683.683-.694-.694a6.893 6.893 0 0 0-4.9-2.033c-1.842 0-3.58.72-4.883 2.023A6.848 6.848 0 0 0 0 6.944c0 1.848.726 3.58 2.034 4.889l9.947 9.947a.72.72 0 0 0 .503.212c.18 0 .366-.07.503-.207l9.969-9.931a6.875 6.875 0 0 0 2.028-4.894 6.843 6.843 0 0 0-2.018-4.894zm-1.017 8.776l-9.465 9.428-9.444-9.444a5.453 5.453 0 0 1-1.61-3.882c0-1.467.567-2.844 1.605-3.877a5.445 5.445 0 0 1 3.872-1.605c1.467 0 2.85.572 3.888 1.61l1.197 1.197c.28.28.73.28 1.011 0l1.187-1.186a5.462 5.462 0 0 1 3.882-1.61c1.462 0 2.84.572 3.877 1.604a5.448 5.448 0 0 1 1.605 3.883 5.426 5.426 0 0 1-1.605 3.882z"/></g></svg>