<svg xmlns="http://www.w3.org/2000/svg" width="22" height="24"><g fill="none" fill-rule="evenodd"><path d="M-1 0h24v24H-1z"/><path fill="#1A1A1A" fill-rule="nonzero" d="M21.994 23.344L20.205 6.678a.546.546 0 0 0-.537-.477H16.36V5.188A5.191 5.191 0 0 0 11.171 0a5.191 5.191 0 0 0-5.187 5.188V6.2H2.585a.546.546 0 0 0-.537.477L.26 23.344c-.03.15.03.298.119.417a.48.48 0 0 0 .387.18h20.721a.48.48 0 0 0 .388-.18c.089-.119.149-.268.119-.417zM15.822 9.212a.47.47 0 0 1 .477.477.47.47 0 0 1-.477.477.47.47 0 0 1-.477-.477.47.47 0 0 1 .477-.477zM7.057 5.188a4.123 4.123 0 0 1 4.114-4.115 4.123 4.123 0 0 1 4.115 4.115V6.2H7.057V5.188zM6.52 9.212a.47.47 0 0 1 .478.477.47.47 0 0 1-.478.477.47.47 0 0 1-.477-.477.47.47 0 0 1 .477-.477zM1.393 22.837l1.67-15.592h2.92v.984a1.516 1.516 0 0 0-1.013 1.43c0 .835.686 1.521 1.52 1.521.835 0 1.521-.686 1.521-1.52 0-.656-.417-1.223-1.013-1.431v-.984h8.228v.984a1.516 1.516 0 0 0-1.014 1.43c0 .835.686 1.521 1.52 1.521.836 0 1.521-.686 1.521-1.52 0-.656-.417-1.223-1.013-1.431v-.984h3.04l1.67 15.592H1.393z"/></g></svg>