<svg xmlns="http://www.w3.org/2000/svg" width="25" height="21"><g fill="none" fill-rule="evenodd"><path d="M0-2h25v25H0z"/><path fill="#000" fill-rule="nonzero" d="M24.753 2.413a.565.565 0 0 0-.658.013c-.134.1-.334.189-.567.266.768-.952.779-1.588.768-1.745a.567.567 0 0 0-.893-.418 4.964 4.964 0 0 1-2.705.933 5.322 5.322 0 0 0-3.646-1.43 5.367 5.367 0 0 0-5.324 6C6.794 5.91 2.792 1.26 2.752 1.212a.567.567 0 0 0-.92.08c-1.256 2.146-.743 4.18.118 5.603a.564.564 0 0 0-.834.488c-.037 2.256.993 3.607 2.032 4.395a.566.566 0 0 0-.326.69c.723 2.33 2.42 3.203 3.61 3.53-1.365.963-3.054 1.189-4.338 1.189-.82 0-1.384-.097-1.39-.099a.565.565 0 1 0-.438 1.01c2.576 1.936 5.685 2.342 7.841 2.342 1.704 0 2.887-.249 2.947-.262C22.12 17.595 22.54 7.674 22.522 5.866c2.074-1.906 2.404-2.65 2.456-2.835a.565.565 0 0 0-.225-.618zM21.57 5.204a.566.566 0 0 0-.184.458c.007.108.612 10.8-10.578 13.413-.01.002-1.126.235-2.702.235-1.468 0-3.411-.201-5.266-1.015 1.698-.109 3.78-.63 5.278-2.286a.565.565 0 0 0-.423-.946c-.106 0-2.332-.026-3.446-2.096.516.017.984-.06 1.33-.218a.566.566 0 0 0-.117-1.068c-.12-.026-2.683-.61-3.145-3.313.401.153.89.26 1.363.19a.567.567 0 0 0 .284-.99c-.113-.096-2.557-2.22-1.496-5 1.424 1.445 5.298 4.847 9.97 4.584a.566.566 0 0 0 .515-.705 4.235 4.235 0 0 1 4.1-5.283 4.2 4.2 0 0 1 3.015 1.263.567.567 0 0 0 .394.169h.087a6 6 0 0 0 1.815-.29c-.24.252-.55.537-.954.849a.566.566 0 0 0 .39 1.011c.092-.007.494-.042.993-.132a28.08 28.08 0 0 1-1.223 1.17z"/></g></svg>