<svg xmlns="http://www.w3.org/2000/svg" width="20" height="24"><g fill="none" fill-rule="evenodd"><path d="M-2 0h24v24H-2z"/><path fill="#000" fill-rule="nonzero" d="M14.181 14.073l-.061-.028a9.512 9.512 0 0 0-2.199-.7l-.05-.01a8.299 8.299 0 0 0-.384-.066l-.037-.006-.004-.001-.037-.005a9.162 9.162 0 0 0-.324-.044l-.378-.03c-.464-.031-.942-.03-1.401.003l-.134.011-.062.005-.156.014a7.937 7.937 0 0 0-.43.058l-.04.006a13.25 13.25 0 0 0-.608.115 10.032 10.032 0 0 0-1.055.298l-.1.036c-.307.109-.611.233-.906.37l-.08.037v.002c-3.45 1.65-5.674 5.167-5.674 8.983 0 .088.006.174.012.26l.025.606h19.85l.027-.599c.006-.088.011-.176.011-.267a9.989 9.989 0 0 0-5.806-9.048zm-13.145 8.94c.042-3.425 2.067-6.568 5.155-8.016l.099-.039.012-.01a8.93 8.93 0 0 1 .744-.301l.08-.029a8.728 8.728 0 0 1 1.242-.328c.077-.014.154-.029.231-.041l.038-.007c.14-.022.279-.042.418-.057l.318-.028a8.64 8.64 0 0 1 1.298 0l.31.026.245.032.112.016c.116.017.232.037.349.06l.054.01c.066.012.131.024.193.037a10.125 10.125 0 0 1 .933.258 8.582 8.582 0 0 1 .872.345l.025.011a9.014 9.014 0 0 1 5.25 8.06H1.035v.002zm6.584-11.08c.073.03.148.057.224.084l.158.057c.06.024.122.047.184.066.58.183 1.187.276 1.804.281l.049.001c.212 0 .424-.01.627-.032a2.91 2.91 0 0 0 .207-.03l.152-.022c.086-.012.171-.024.261-.042.061-.012.12-.028.18-.044l.167-.043c.082-.02.164-.04.245-.065.05-.016.1-.034.15-.053l.133-.048c.096-.033.192-.067.288-.108.038-.016.074-.033.11-.05l.044-.022c.132-.06.263-.12.393-.19l.085-.05a5.85 5.85 0 0 0 .439-.27c.076-.05.15-.109.221-.166l.25-.194c1.432-1.185 2.255-2.925 2.255-4.73l.003-.052A6.217 6.217 0 0 0 10.04 0a6.214 6.214 0 0 0-6.192 5.82l-.005.08a4.075 4.075 0 0 0-.014.31 6.198 6.198 0 0 0 3.792 5.722zM4.812 5.967l.006-.087a5.24 5.24 0 0 1 5.22-4.907c2.888 0 5.237 2.35 5.24 5.193l-.003.051a5.237 5.237 0 0 1-1.91 4.033l-.232.176a2.645 2.645 0 0 1-.168.128c-.117.08-.24.151-.366.222l-.07.043a4.933 4.933 0 0 1-.33.157l-.13.063c-.073.03-.15.057-.228.084l-.16.058c-.032.011-.063.024-.094.033-.06.019-.121.033-.182.048l-.194.05c-.042.01-.083.022-.12.03a2.6 2.6 0 0 1-.197.03l-.185.029c-.044.007-.09.015-.14.02a5.106 5.106 0 0 1-.49.028h-.046a5.217 5.217 0 0 1-1.556-.237 1.769 1.769 0 0 1-.128-.047l-.183-.066c-.057-.02-.114-.04-.168-.063A5.23 5.23 0 0 1 4.8 6.211c0-.083.006-.163.012-.244z"/></g></svg>