<svg xmlns="http://www.w3.org/2000/svg" width="23" height="23" viewBox="0 0 23 23">
    <g fill="none" fill-rule="evenodd">
        <path d="M-1-1h25v25H-1z"/>
        <path fill="#000" fill-rule="nonzero" d="M19.294 2.926h-2.11c-.69 0-1.252.562-1.252 1.251v2.11c0 .69.562 1.25 1.251 1.25h2.11c.69 0 1.251-.56 1.251-1.25v-2.11c0-.69-.56-1.25-1.25-1.25zm.155 3.361c0 .086-.07.156-.155.156h-2.11a.155.155 0 0 1-.156-.156v-2.11c0-.086.07-.155.155-.155h2.11c.086 0 .156.07.156.155v2.11zM18.071.011H4.93A4.935 4.935 0 0 0 0 4.939v12.596a4.935 4.935 0 0 0 4.929 4.928H18.07A4.935 4.935 0 0 0 23 17.535V4.939A4.935 4.935 0 0 0 18.071.011zm3.834 17.524a3.838 3.838 0 0 1-3.834 3.833H4.93a3.838 3.838 0 0 1-3.834-3.833V9.32h5.52a6.54 6.54 0 0 0-1.686 4.381 6.579 6.579 0 0 0 6.571 6.572 6.579 6.579 0 0 0 6.571-6.572 6.54 6.54 0 0 0-1.687-4.38h5.52v8.214zM11.5 8.225a5.482 5.482 0 0 1 5.476 5.476 5.482 5.482 0 0 1-5.476 5.476 5.482 5.482 0 0 1-5.476-5.476A5.482 5.482 0 0 1 11.5 8.225zm10.405 0h-6.78A6.53 6.53 0 0 0 11.5 7.13a6.532 6.532 0 0 0-3.625 1.095h-6.78V4.939A3.838 3.838 0 0 1 4.93 1.106H18.07a3.838 3.838 0 0 1 3.834 3.833v3.286zM11.5 17.535a3.838 3.838 0 0 0 3.833-3.834A3.838 3.838 0 0 0 11.5 9.868 3.838 3.838 0 0 0 7.667 13.7a3.838 3.838 0 0 0 3.833 3.834zm0-6.572a2.741 2.741 0 0 1 2.738 2.738A2.741 2.741 0 0 1 11.5 16.44a2.741 2.741 0 0 1-2.738-2.738 2.741 2.741 0 0 1 2.738-2.738z"/>
    </g>
</svg>
