<svg xmlns="http://www.w3.org/2000/svg" width="45" height="41" viewBox="0 0 45 41">
    <path fill="#000" fill-rule="nonzero" d="M44.727 16.422v-.767a5.97 5.97 0 0 0-5.963-5.964h-5.591a4.1 4.1 0 1 1 0-8.2H41V0h-7.827a5.59 5.59 0 0 0 0 11.182h5.59a4.477 4.477 0 0 1 4.473 4.473v.767a8.146 8.146 0 0 1-2.401 5.799l-.59.59-7.678-7.683a.746.746 0 0 0-.529-.219H2.236A2.236 2.236 0 0 0 0 17.145v21.619A2.236 2.236 0 0 0 2.236 41h29.802a.745.745 0 0 0 .543-.235l10.436-11.093a2.968 2.968 0 0 0-.063-4.151l-1.656-1.656.59-.59a9.626 9.626 0 0 0 2.84-6.853zM41.9 26.575c.573.568.587 1.49.031 2.076L31.715 39.509H2.236a.745.745 0 0 1-.745-.745V17.145c0-.411.334-.745.745-.745H31.73l7.462 7.464-1.159 1.159a2.942 2.942 0 0 0-1.505-.423 2.982 2.982 0 1 0 2.982 2.982 2.942 2.942 0 0 0-.423-1.505l1.158-1.158 1.656 1.656zm-4.846 1.534l.908-.908c.036.124.054.252.056.38a1.49 1.49 0 1 1-1.49-1.49c.128.002.256.02.38.056l-.908.908 1.054 1.054zm-27.89 1.403c.031.709-.282 1.389-.841 1.826A3.663 3.663 0 0 1 6.001 32a5.538 5.538 0 0 1-2.423-.459v-1.35c.406.191.831.34 1.267.444.411.101.832.154 1.255.158.441.034.88-.079 1.25-.322.265-.208.415-.53.403-.866a1.086 1.086 0 0 0-.373-.83 5.575 5.575 0 0 0-1.527-.8 4.052 4.052 0 0 1-1.684-1.105 2.338 2.338 0 0 1-.489-1.49 2.087 2.087 0 0 1 .776-1.72 3.217 3.217 0 0 1 2.082-.626 6.123 6.123 0 0 1 2.495.549l-.454 1.163a5.443 5.443 0 0 0-2.076-.489 1.594 1.594 0 0 0-1.05.299.992.992 0 0 0-.359.796c-.005.204.044.405.144.582.12.186.282.342.471.456.378.223.773.413 1.182.57.498.19.971.44 1.408.745.277.205.502.473.657.781.145.323.217.673.209 1.027zm5.353-6.391h-1.551L9.7 31.881h1.504l.853-2.423h3.336l.872 2.423h1.515l-3.264-8.76zm-2.038 5.107l.785-2.274c.19-.524.348-1.06.472-1.604.039.158.112.409.217.75.106.343.189.594.248.753l.82 2.375h-2.542zm7.88 2.43h3.695v1.223h-5.12v-8.725h1.425v7.502zm10.133-6.296h-3.509v2.375h3.288v1.194h-3.288v2.738h3.51v1.212h-4.936v-8.725h4.935v1.206zM3.727 18.636h26.837v1.491H3.727v-1.49zm0 17.146h26.837v1.49H3.727v-1.49z"/>
</svg>
