<svg xmlns="http://www.w3.org/2000/svg" width="44" height="45" viewBox="0 0 44 45">
    <g fill="#000" fill-rule="nonzero">
        <path d="M40.283 22.749a.567.567 0 0 1 0-.516l2.545-4.98a2.22 2.22 0 0 0 .139-1.715 2.24 2.24 0 0 0-1.116-1.31l-4.989-2.526a.562.562 0 0 1-.304-.424l-.867-5.524a2.232 2.232 0 0 0-2.563-1.863l-5.524.876a.617.617 0 0 1-.498-.156L23.159.655A2.224 2.224 0 0 0 21.573 0c-.6 0-1.162.23-1.586.655L16.031 4.61a.557.557 0 0 1-.405.166c-.028 0-.065 0-.093-.01l-5.523-.876a2.232 2.232 0 0 0-2.564 1.863l-.867 5.524a.562.562 0 0 1-.304.424l-4.989 2.536a2.213 2.213 0 0 0-1.115 1.31 2.22 2.22 0 0 0 .138 1.714l2.545 4.98a.567.567 0 0 1 0 .516l-2.545 4.98a2.22 2.22 0 0 0-.138 1.715 2.24 2.24 0 0 0 1.115 1.31l4.98 2.517c.166.083.277.24.304.424l.867 5.523a2.232 2.232 0 0 0 2.564 1.863l5.523-.876a.617.617 0 0 1 .498.157l3.947 3.956c.424.424.986.655 1.586.655.6 0 1.162-.231 1.586-.655l3.947-3.956a.552.552 0 0 1 .498-.157l5.523.876a2.232 2.232 0 0 0 2.573-1.863l.867-5.523a.562.562 0 0 1 .304-.424l4.989-2.536a2.213 2.213 0 0 0 1.115-1.31 2.22 2.22 0 0 0-.138-1.715l-2.536-4.97zm1.088 6.178a.539.539 0 0 1-.285.332l-4.99 2.536a2.247 2.247 0 0 0-1.198 1.65l-.867 5.524a.567.567 0 0 1-.654.47l-5.524-.875a2.243 2.243 0 0 0-1.937.627l-3.946 3.956a.597.597 0 0 1-.812 0l-3.946-3.956a2.263 2.263 0 0 0-1.937-.627l-5.523.876a.574.574 0 0 1-.655-.48l-.867-5.524a2.247 2.247 0 0 0-1.199-1.65L2.043 29.25a.539.539 0 0 1-.286-.332.544.544 0 0 1 .037-.433l2.545-4.98a2.266 2.266 0 0 0 0-2.038l-2.545-4.98a.55.55 0 0 1-.037-.433.539.539 0 0 1 .286-.332l4.988-2.536a2.247 2.247 0 0 0 1.199-1.65l.867-5.524a.567.567 0 0 1 .655-.47l5.523.876a2.263 2.263 0 0 0 1.936-.627l3.947-3.956a.597.597 0 0 1 .812 0l3.946 3.956a2.273 2.273 0 0 0 1.937.627l5.524-.876a.574.574 0 0 1 .654.47l.867 5.524c.11.71.563 1.328 1.199 1.65l4.989 2.536c.138.065.24.185.285.332a.544.544 0 0 1-.036.434l-2.546 4.98a2.266 2.266 0 0 0 0 2.037l2.546 4.98a.57.57 0 0 1 .036.442z"/>
        <path d="M28.784 17.05h-4.15v-2.905c0-1.466-.442-2.535-1.309-3.172-1.346-.986-3.107-.48-3.31-.415a.83.83 0 0 0-.581.793v3.615c0 2.518-2.877 3.449-3.19 3.541a1.56 1.56 0 0 0-1.135-.498h-2.95c-.858 0-1.56.701-1.56 1.559v9.36c0 .857.702 1.558 1.56 1.558h2.95c.35 0 .664-.12.931-.305a3.185 3.185 0 0 0 2.167.849h8.853c2.102 0 3.504-1.153 3.744-3.09l1.19-7.56c.009-.047.009-.084.009-.13a3.223 3.223 0 0 0-3.219-3.2zM14.99 28.826h-2.73v-9.139h2.73v9.139zM29.144 27.7v.027c-.046.406-.203 1.633-2.084 1.633h-8.853c-.848 0-1.53-.692-1.53-1.531v-7.7h.009c.184-.046 4.435-1.282 4.435-5.164v-2.914c.378-.027.867 0 1.236.268.415.304.627.922.627 1.825v3.744c0 .461.378.84.84.84h4.988c.83 0 1.503.654 1.53 1.475L29.145 27.7z"/>
    </g>
</svg>
