<svg xmlns="http://www.w3.org/2000/svg" width="49" height="41" viewBox="0 0 49 41">
    <path fill="#000" fill-rule="nonzero" d="M33.986 10.932a.712.712 0 0 0-.528-.273L16.721 9.9a.67.67 0 0 0-.04-.001 1.475 1.475 0 0 0-.591-.796l-2.05-1.367a.712.712 0 0 0-.79 1.185l2.05 1.366a.05.05 0 0 1 .02.027l2.611 9.138c.081.285.215.541.388.762l-.956 1.91a1.478 1.478 0 0 0 .43 1.835 2.219 2.219 0 0 0-.295 1.107 2.236 2.236 0 0 0 2.234 2.233 2.236 2.236 0 0 0 2.08-3.043h6.49a2.236 2.236 0 0 0 2.08 3.043 2.236 2.236 0 0 0 2-3.228.712.712 0 0 0-.477-1.239H18.68c-.01 0-.027 0-.042-.023-.014-.023-.006-.038-.002-.048l.88-1.76a2.234 2.234 0 0 0 .823.056l10.002-1.177a2.987 2.987 0 0 0 2.586-2.387l1.197-5.982a.712.712 0 0 0-.138-.578zm-3.603 13.323a.81.81 0 0 1 0 1.62.81.81 0 0 1 0-1.62zm-10.651 0a.81.81 0 1 1-.002 1.621.81.81 0 0 1 .002-1.621zm-1.746-9.792l-.892-3.122 2.846.129.493 2.993h-2.447zm2.187 5.179a.806.806 0 0 1-.873-.582l-.907-3.174h2.275l.598 3.627-1.093.129zm4.172-.491l-1.664.196-.57-3.46h2.234v3.264zm0-4.688h-2.469l-.482-2.927 2.951.134v2.793zm3.605 4.264l-2.181.256v-3.097h2.438l-.257 2.84zm.386-4.264H25.77v-2.728l2.802.127-.235 2.6zm3.195 2.75a1.567 1.567 0 0 1-1.356 1.252l-.78.092.242-2.67h2.16l-.266 1.326zm.55-2.75h-2.315l.23-2.536 2.57.117-.485 2.419zM45.598.008H2.994A2.998 2.998 0 0 0 0 3.002v28.91a2.998 2.998 0 0 0 2.994 2.994h14.41l-.583 4.663h-2.415a.712.712 0 1 0 0 1.423h19.78a.712.712 0 1 0 0-1.423h-2.414l-.583-4.663h14.41a2.998 2.998 0 0 0 2.994-2.994V3.002A2.998 2.998 0 0 0 45.598.008zm-27.342 39.56l.582-4.662h2.62l.257 1.028a2.657 2.657 0 0 0 2.581 2.015 2.657 2.657 0 0 0 2.582-2.015l.257-1.028h2.62l.582 4.663H18.256zm4.67-4.662h2.74l-.17.683a1.235 1.235 0 0 1-1.2.936 1.235 1.235 0 0 1-1.2-.936l-.17-.683zm24.243-2.994c0 .866-.705 1.57-1.57 1.57H2.993c-.866 0-1.57-.704-1.57-1.57V3.002c0-.866.704-1.57 1.57-1.57h42.604c.866 0 1.571.704 1.571 1.57v28.91z"/>
</svg>
