<svg xmlns="http://www.w3.org/2000/svg" width="66" height="66" viewBox="0 0 66 66">
    <g fill="none" fill-rule="evenodd" transform="translate(1 1)">
        <circle cx="32" cy="32" r="32" stroke="#E83C4D" stroke-width="2" opacity=".3"/>
        <circle cx="32" cy="32" r="27" fill="#E83C4D" opacity=".3"/>
        <circle cx="32" cy="32" r="23" fill="#FFF"/>
        <g fill="#1A1A1A" fill-rule="nonzero">
            <path d="M37.8 34.384l2.316 2.325c.426.422.65.924.65 1.447 0 .52-.22 1.026-.637 1.46-.181.19-.367.372-.549.545-.265.257-.519.497-.738.763-.004.009-.013.013-.017.021-.641.697-1.46 1.047-2.434 1.047-.085 0-.178-.004-.266-.009-1.448-.092-2.743-.637-3.713-1.097A19.856 19.856 0 0 1 25.8 35.71c-1.523-1.831-2.544-3.54-3.228-5.384-.278-.75-.641-1.899-.54-3.13a3.087 3.087 0 0 1 .916-1.963l1.434-1.447.009-.008c.421-.405.92-.62 1.434-.62.515 0 1.004.215 1.414.62.274.253.54.523.793.784.126.135.262.27.392.401l1.152 1.152c.886.886.886 2.034 0 2.92-.118.118-.236.24-.354.359-.312.316-.633.645-.98.962.258.57.613 1.13 1.14 1.797 1.089 1.338 2.224 2.371 3.473 3.165.122.076.266.147.417.223.106.055.216.11.325.17l1.334-1.33c.426-.426.924-.65 1.443-.65.523 0 1.017.228 1.426.654zM32.804 26.756a5.35 5.35 0 0 1 2.911 1.51 5.379 5.379 0 0 1 1.511 2.911.566.566 0 0 0 .561.473c.034 0 .063-.004.097-.008a.57.57 0 0 0 .469-.659 6.508 6.508 0 0 0-1.827-3.523 6.508 6.508 0 0 0-3.524-1.827.573.573 0 0 0-.658.464.563.563 0 0 0 .46.659zM41.969 30.819a10.706 10.706 0 0 0-3.009-5.802 10.706 10.706 0 0 0-5.802-3.008.567.567 0 0 0-.654.464.572.572 0 0 0 .469.658 9.587 9.587 0 0 1 5.185 2.688 9.559 9.559 0 0 1 2.688 5.185.566.566 0 0 0 .561.473c.034 0 .064-.004.097-.008a.559.559 0 0 0 .465-.65z"/>
        </g>
    </g>
</svg>
