<svg xmlns="http://www.w3.org/2000/svg" width="56" height="35" viewBox="0 0 56 35">
    <path fill="#000" fill-rule="nonzero" d="M51.437 14.839l-1.432-5.73a.866.866 0 0 0 .685-.846v-.924a3.641 3.641 0 0 0-3.637-3.637h-6.524V1.796c0-.986-.803-1.79-1.79-1.79H5.485c-.987 0-1.79.804-1.79 1.79V17.5a.866.866 0 0 0 1.732 0V1.796c0-.031.026-.057.058-.057h33.254c.032 0 .058.026.058.057V17.5a.866.866 0 0 0 1.732 0v-.982h10.22c1.257.001 2.325.827 2.691 1.964h-2.692a.866.866 0 0 0-.867.866v1.847a2.716 2.716 0 0 0 2.714 2.713h.981v3.81h-2.264a5.493 5.493 0 0 0-5.183-3.694 5.493 5.493 0 0 0-5.183 3.695h-.417v-6.524a.866.866 0 0 0-1.732 0v6.524H20.829a5.493 5.493 0 0 0-5.183-3.695 5.493 5.493 0 0 0-5.183 3.695H5.485a.058.058 0 0 1-.058-.058v-1.905H9.18a.866.866 0 0 0 0-1.732H.866a.866.866 0 0 0 0 1.732h2.829v1.905c0 .987.803 1.79 1.79 1.79h4.678l-.002.057a5.49 5.49 0 0 0 5.485 5.485 5.49 5.49 0 0 0 5.484-5.485l-.001-.057h19.517l-.002.057a5.49 5.49 0 0 0 5.485 5.485 5.49 5.49 0 0 0 5.484-5.485l-.001-.057h2.83a.866.866 0 0 0 .867-.866v-9.238a4.568 4.568 0 0 0-3.872-4.508zM40.529 5.434h6.524c1.05 0 1.905.854 1.905 1.905v.058h-8.43V5.434zm0 9.353V9.129h7.695l1.415 5.658h-9.11zM15.646 33.26a3.757 3.757 0 0 1-3.753-3.752 3.757 3.757 0 0 1 3.753-3.753 3.757 3.757 0 0 1 3.752 3.753 3.757 3.757 0 0 1-3.752 3.752zm30.483 0a3.757 3.757 0 0 1-3.753-3.752 3.757 3.757 0 0 1 3.753-3.753 3.757 3.757 0 0 1 3.753 3.753 3.757 3.757 0 0 1-3.753 3.752zm7.448-11.085h-.982a.983.983 0 0 1-.981-.981v-.982h1.963v1.963zM15.646 27.72c.987 0 1.79.803 1.79 1.79 0 .986-.803 1.79-1.79 1.79s-1.79-.804-1.79-1.79c0-.987.803-1.79 1.79-1.79zm30.483 0c.987 0 1.79.803 1.79 1.79 0 .986-.803 1.79-1.79 1.79s-1.79-.804-1.79-1.79c0-.987.803-1.79 1.79-1.79zm-10.161-3.695a.866.866 0 1 1 0 1.732H23.036a.866.866 0 1 1 0-1.732h12.932zm-22.17-3.695a.866.866 0 0 1 0 1.732H2.713a.866.866 0 1 1 0-1.732h11.085zM30.114 8.574a.866.866 0 0 1 0 1.225L21.8 18.112a.863.863 0 0 1-1.224 0l-4.619-4.618a.866.866 0 1 1 1.225-1.225l4.006 4.006 7.701-7.701a.866.866 0 0 1 1.225 0z"/>
</svg>
