<svg xmlns="http://www.w3.org/2000/svg" width="25" height="19" viewBox="0 0 25 19">
    <g fill="none" fill-rule="evenodd">
        <path d="M0-3h25v25H0z"/>
        <g fill="#000" fill-rule="nonzero">
            <path d="M20.029.255H4.97C2.231.255 0 2.492 0 5.242v8.393c0 2.75 2.23 4.987 4.971 4.987H20.03c2.74 0 4.971-2.237 4.971-4.987V5.242c0-2.75-2.23-4.987-4.971-4.987zm3.95 13.38c0 2.188-1.772 3.967-3.95 3.967H4.97c-2.178 0-3.95-1.78-3.95-3.966V5.242c0-2.187 1.772-3.966 3.95-3.966H20.03c2.178 0 3.95 1.78 3.95 3.966v8.394z"/>
            <path d="M17.02 9.254l-7.068-4.14a.511.511 0 0 0-.768.44v8.28a.511.511 0 0 0 .768.44l7.068-4.139a.51.51 0 0 0 0-.88zm-6.816 3.69v-6.5l5.55 3.25-5.55 3.25z"/>
        </g>
    </g>
</svg>
